<svg width="1980" height="176" viewBox="0 0 1980 176" fill="none" xmlns="http://www.w3.org/2000/svg">
<path fill-rule="evenodd" clip-rule="evenodd" d="M0 173H1980V0.058029C1918.17 50.8743 1718.66 152.507 1415.29 152.507C1228.79 152.507 1105.29 114.787 981.129 76.8651C852.834 37.6802 723.834 -1.72004 523.892 0.058029C325.463 1.82264 137.561 38.2459 0 77.367V173Z" fill="#007857"/>
<path fill-rule="evenodd" clip-rule="evenodd" d="M0 176V116.816C137.35 87.5462 336.352 58.3525 547.465 57.0399C744.17 55.8168 871.081 82.9187 997.299 109.872C1119.45 135.957 1240.95 161.904 1424.43 161.904C1722.89 161.904 1919.17 91.9945 1980 57.0399V176H0Z" fill="#242424"/>
</svg>
