<svg width="1980" height="176" viewBox="0 0 1980 176" fill="none" xmlns="http://www.w3.org/2000/svg">
<path fill-rule="evenodd" clip-rule="evenodd" d="M1980 2.99997V98.633C1842.44 137.754 1654.54 174.177 1456.11 175.942C1256.17 177.72 1127.17 138.32 998.871 99.1349C874.712 61.2132 751.214 23.4931 564.714 23.4931C261.344 23.4931 61.834 125.126 0 175.942V2.99997H1980Z" fill="#007857"/>
<path fill-rule="evenodd" clip-rule="evenodd" d="M1980 2.9871e-07H0V118.96C60.8328 84.0055 257.113 14.0964 555.572 14.0964C739.052 14.0964 860.552 40.0426 982.701 66.1275C1108.92 93.0813 1235.83 120.183 1432.54 118.96C1643.65 117.647 1842.65 88.4539 1980 59.1835V2.9871e-07Z" fill="#242424"/>
</svg>
